<?xml version="1.0" standalone="no"?>
<!DOCTYPE svg PUBLIC "-//W3C//DTD SVG 20010904//EN"
 "http://www.w3.org/TR/2001/REC-SVG-20010904/DTD/svg10.dtd">
<svg version="1.0" xmlns="http://www.w3.org/2000/svg"
 width="500.000000pt" height="500.000000pt" viewBox="0 0 500.000000 500.000000"
 preserveAspectRatio="xMidYMid meet">
<metadata>
Created by potrace 1.11, written by Peter Selinger 2001-2013
</metadata>
<g transform="translate(0.000000,500.000000) scale(0.100000,-0.100000)"
fill="#000000" stroke="none">
<path d="M1072 4980 c-13 -11 -21 -23 -18 -28 3 -5 -6 -20 -19 -32 -29 -27
-34 -17 -7 14 17 21 17 21 -5 2 -12 -10 -21 -28 -20 -40 1 -15 -3 -21 -15 -20
-10 1 -16 -2 -13 -6 2 -4 -13 -42 -34 -86 -115 -239 -77 -435 102 -525 23 -12
70 -51 103 -88 65 -70 101 -94 171 -111 l43 -11 -6 -92 c-11 -191 -11 -194
-47 -201 -25 -5 -29 -9 -17 -16 8 -5 22 -10 31 -10 12 0 18 -17 25 -77 12
-105 34 -111 34 -9 0 41 4 77 10 81 13 8 210 -12 351 -36 309 -51 705 -147
1030 -249 69 -22 132 -40 140 -40 8 -1 31 -7 52 -14 69 -25 37 -1 -56 41 -288
131 -1177 333 -1464 333 l-53 0 0 139 c0 101 3 142 13 148 16 11 94 32 134 37
20 2 58 24 96 53 65 52 76 52 91 7 5 -18 95 -118 106 -119 3 0 18 -13 34 -28
16 -15 36 -27 45 -26 11 0 9 3 -5 9 -38 15 -37 29 1 18 19 -6 32 -15 30 -19
-3 -4 -2 -9 3 -11 4 -1 18 -18 31 -37 31 -43 92 -71 158 -71 28 0 55 -4 58
-10 3 -5 12 -10 18 -10 7 0 6 4 -3 10 -19 12 -4 13 38 1 23 -7 44 -6 73 4 21
8 41 14 44 15 33 4 66 14 71 21 7 11 2 11 -33 -1 -26 -9 -27 -9 -9 5 11 8 28
15 37 15 10 0 27 12 38 26 18 23 22 24 43 13 13 -8 27 -12 31 -11 4 1 20 -9
35 -24 15 -14 40 -32 57 -41 29 -16 123 -23 179 -13 26 4 31 1 38 -25 18 -73
139 -139 250 -138 136 2 246 64 380 218 48 55 93 102 99 104 7 2 26 19 43 37
40 44 52 43 54 -3 2 -57 30 -153 58 -200 14 -24 48 -68 77 -99 49 -52 57 -57
156 -85 90 -26 118 -30 195 -27 61 2 102 9 125 21 45 22 56 22 68 -5 14 -32
133 -161 155 -170 10 -4 18 -10 18 -13 0 -4 -6 -3 -12 1 -9 5 -8 2 1 -10 8 -9
20 -15 27 -12 8 3 13 1 11 -4 -1 -6 14 -20 33 -31 l35 -21 -28 26 c-15 14 -24
26 -18 26 5 0 12 -4 15 -9 7 -11 83 -51 97 -51 6 0 7 5 3 11 -4 8 -1 8 12 1
22 -11 236 -23 277 -15 l27 5 0 804 0 804 -1937 0 c-1830 0 -1938 -1 -1957
-17 -20 -17 -20 -17 -7 0 18 23 2 21 -27 -3z m954 -1031 c4 -8 9 -8 13 -1 3 6
11 0 18 -14 8 -18 8 -24 -1 -24 -16 0 -56 29 -56 41 0 13 17 11 26 -2z m767
-46 c-7 -2 -19 -2 -25 0 -7 3 -2 5 12 5 14 0 19 -2 13 -5z m-468 -23 c-3 -5
-11 -10 -16 -10 -6 0 -7 5 -4 10 3 6 11 10 16 10 6 0 7 -4 4 -10z m-35 -14 c0
-2 -7 -7 -16 -10 -8 -3 -12 -2 -9 4 6 10 25 14 25 6z"/>
<path d="M1158 3717 c-16 -16 -40 -104 -53 -198 l-7 -46 -36 8 c-21 5 -52 9
-69 9 -41 0 -45 -13 -41 -140 l3 -95 57 0 57 0 -6 -116 -6 -117 39 -25 c45
-29 94 -44 94 -29 0 6 -19 21 -42 34 -42 23 -43 24 -46 83 -6 105 27 380 64
536 9 37 14 77 12 90 -3 21 -4 22 -20 6z m-74 -336 c-8 -78 -8 -79 -41 -92
-51 -19 -63 -5 -63 75 0 40 3 76 7 79 4 4 29 6 55 6 l49 -2 -7 -66z"/>
<path d="M670 3452 c0 -26 42 -234 54 -269 15 -42 46 -96 52 -90 2 1 -7 30
-20 62 -13 33 -26 72 -30 88 -6 27 -6 27 44 27 27 0 50 5 50 10 0 6 -20 10
-45 10 -25 0 -45 3 -45 8 0 4 11 27 25 51 14 23 25 45 25 48 0 12 -33 -23 -47
-51 -14 -28 -17 -29 -23 -11 -4 11 -10 41 -14 67 -4 26 -11 50 -17 53 -5 4 -9
2 -9 -3z"/>
<path d="M1316 3414 c-3 -26 -6 -97 -6 -158 0 -181 -11 -306 -27 -306 -16 0
-17 -17 -1 -22 8 -3 12 -43 12 -133 l1 -128 -30 -19 c-16 -10 -34 -20 -40 -22
-5 -2 -7 -6 -4 -10 4 -4 33 1 65 10 133 40 261 55 497 61 207 5 453 -8 484
-26 11 -6 9 -15 -10 -42 -29 -44 -69 -63 -113 -55 -33 7 -37 12 -46 69 -5 30
-23 24 -26 -9 -2 -19 5 -40 18 -57 18 -23 29 -27 73 -27 70 0 112 26 128 80
13 43 19 46 50 29 18 -9 19 -8 10 9 -11 21 -50 33 -176 54 -117 19 -531 16
-660 -5 -55 -9 -119 -19 -142 -23 l-43 -7 0 99 c0 55 4 105 9 112 6 10 71 1
317 -47 557 -109 855 -152 937 -137 60 11 35 23 -65 30 -144 11 -398 51 -801
127 -202 38 -370 69 -373 69 -2 0 -4 105 -4 234 0 227 -5 296 -20 296 -4 0
-10 -21 -14 -46z"/>
<path d="M1520 3387 c0 -9 56 -21 183 -41 192 -30 506 -91 515 -101 3 -3 13
-26 21 -52 19 -54 63 -83 140 -91 38 -3 57 2 111 30 l65 35 105 -32 c138 -42
160 -47 160 -37 0 16 -154 80 -267 113 -182 52 -500 118 -760 159 -212 33
-273 37 -273 17z"/>
<path d="M228 3303 c-49 -56 -94 -208 -83 -280 6 -45 50 -93 83 -93 27 0 93
60 110 99 13 32 16 34 23 16 4 -11 8 -30 8 -42 1 -12 6 -25 12 -29 9 -5 9 6 3
42 -4 27 -8 64 -8 82 1 38 -1 38 -43 12 -39 -23 -43 -35 -8 -26 l24 6 -15 -37
c-24 -57 -62 -93 -98 -93 -17 0 -36 4 -42 8 -33 22 -42 88 -23 171 15 66 59
153 80 158 11 3 19 9 19 14 0 15 -26 10 -42 -8z"/>
<path d="M554 3215 c-12 -19 -15 -37 -11 -70 6 -40 4 -46 -24 -69 -54 -46 -88
-26 -45 25 26 31 35 82 16 94 -20 12 -49 -15 -55 -53 -3 -20 -8 -46 -10 -58
-3 -14 4 -25 25 -37 34 -20 70 -9 95 30 9 13 25 23 39 23 25 0 76 35 76 51 0
6 -13 1 -29 -10 -52 -37 -64 -27 -31 27 11 18 20 41 20 52 0 30 -45 26 -66 -5z
m56 10 c0 -15 -45 -93 -51 -89 -10 6 0 64 14 82 9 11 37 17 37 7z m-120 -59
c0 -8 -12 -28 -26 -43 l-25 -28 6 30 c10 46 45 77 45 41z"/>
<path d="M3613 3214 c-33 -15 -6 -24 68 -24 142 0 325 -36 739 -146 382 -101
499 -134 563 -159 13 -5 17 -2 17 13 0 24 -55 45 -265 102 -82 22 -190 51
-240 65 -164 44 -409 103 -520 125 -106 21 -337 36 -362 24z"/>
<path d="M3475 3180 c-42 -82 -115 -470 -115 -614 l0 -52 178 -86 c97 -47 191
-91 207 -97 179 -62 495 -116 990 -171 213 -24 265 -25 265 -7 0 9 -59 19
-212 35 -467 50 -812 106 -982 158 -44 14 -156 62 -249 107 l-168 81 6 60 c17
172 41 314 72 436 47 182 47 180 34 180 -6 0 -17 -13 -26 -30z"/>
<path d="M2910 3048 c-29 -185 -44 -251 -64 -290 -20 -41 -23 -43 -61 -39 -71
7 -100 6 -103 -4 -3 -11 134 -39 155 -31 24 10 62 107 77 201 18 110 26 235
16 235 -5 0 -13 -33 -20 -72z"/>
<path d="M881 3055 c-1 -22 3 -55 8 -73 5 -17 7 -32 5 -32 -3 0 -28 19 -55 42
-75 63 -68 40 9 -29 59 -52 69 -67 81 -114 18 -72 54 -166 58 -154 1 6 -8 46
-22 90 -13 43 -23 81 -21 83 2 1 33 -26 70 -62 94 -93 82 -60 -14 39 -79 80
-81 84 -96 156 -19 95 -22 103 -23 54z"/>
<path d="M640 3038 c0 -2 15 -49 34 -103 37 -110 84 -321 73 -331 -28 -28
-155 202 -173 315 -4 23 -11 44 -16 47 -15 10 1 -70 29 -146 33 -88 85 -179
122 -215 28 -26 33 -27 46 -14 14 13 13 26 -5 111 -11 53 -23 103 -26 112 -12
31 6 15 25 -22 24 -48 98 -142 111 -142 5 0 -10 26 -34 58 -58 76 -113 178
-141 260 -12 36 -27 68 -34 70 -6 2 -11 2 -11 0z"/>
<path d="M2980 3025 c-16 -19 -15 -19 131 -39 63 -8 144 -25 180 -36 83 -26
98 -26 74 0 -25 27 -122 56 -250 74 -133 19 -120 19 -135 1z"/>
<path d="M431 2869 c-1 -91 20 -224 44 -283 16 -38 50 -56 69 -36 8 10 7 12
-6 7 -46 -16 -70 61 -97 318 l-8 80 -2 -86z"/>
<path d="M3696 2922 c-7 -12 21 -18 134 -27 174 -14 622 -104 629 -127 6 -20
96 -105 133 -125 54 -28 157 -22 227 15 l56 29 63 -17 62 -17 0 22 c0 20 -11
25 -98 49 -133 35 -622 140 -802 172 -164 29 -393 43 -404 26z"/>
<path d="M269 2870 c-28 -22 -14 -27 15 -5 29 22 55 18 68 -9 14 -32 -2 -96
-43 -178 -36 -72 -32 -89 6 -24 49 84 71 196 43 224 -18 18 -63 14 -89 -8z"/>
<path d="M214 2814 c-10 -38 2 -283 16 -327 17 -58 24 -37 9 30 -7 32 -13 118
-13 191 0 72 -2 132 -3 132 -1 0 -6 -12 -9 -26z"/>
<path d="M3005 2628 c-2 -7 -40 -107 -83 -223 -44 -115 -87 -231 -95 -256 -74
-220 -189 -669 -232 -904 -26 -147 -46 -331 -38 -352 7 -18 176 -17 237 1 51
16 126 60 126 75 0 10 -20 5 -114 -29 -32 -12 -96 -24 -141 -27 l-82 -6 33
194 c70 413 186 863 311 1198 77 208 103 288 103 319 0 23 -18 31 -25 10z"/>
<path d="M2355 2615 c-23 -68 -71 -114 -173 -165 -81 -40 -285 -92 -492 -125
-91 -14 -213 -35 -271 -46 -58 -10 -115 -19 -127 -19 -15 0 -34 -22 -73 -87
-29 -49 -79 -125 -111 -169 -53 -74 -63 -83 -116 -103 -104 -39 -129 -76 -27
-41 63 22 255 74 326 89 24 6 82 19 129 30 47 11 130 27 185 36 139 22 147 24
139 36 -8 14 -104 4 -264 -27 -69 -13 -127 -24 -130 -24 -3 0 -5 56 -5 124 l0
124 76 6 c169 14 554 86 682 128 167 54 303 174 268 236 -9 16 -10 15 -16 -3z
m-1037 -490 c-2 -68 -7 -127 -10 -130 -6 -6 -176 -55 -191 -55 -4 0 10 24 31
53 37 50 122 190 122 201 0 21 23 56 36 56 15 0 16 -14 12 -125z"/>
<path d="M1115 2568 c-159 -115 -423 -393 -570 -599 -49 -68 -99 -137 -112
-152 -24 -29 -31 -67 -13 -67 6 0 10 5 10 12 0 7 13 26 29 43 16 16 65 82 110
145 95 135 371 441 480 533 83 71 119 107 105 107 -5 0 -22 -10 -39 -22z"/>
<path d="M4903 2048 c-32 -38 -498 -1077 -685 -1527 -33 -80 -66 -150 -73
-157 -13 -13 -103 -195 -145 -292 -20 -46 -26 -52 -64 -61 -27 -6 145 -9 512
-10 l553 -1 -3 97 -3 96 -90 49 c-229 125 -302 162 -417 212 -68 30 -143 60
-166 67 -23 7 -42 17 -42 22 0 13 148 358 254 595 120 266 351 789 371 839 20
49 18 96 -2 71z"/>
<path d="M1780 2034 c0 -4 20 -24 45 -46 67 -59 79 -88 71 -170 -3 -37 -4 -68
-1 -68 10 0 33 56 35 85 5 76 0 95 -37 136 -40 44 -113 85 -113 63z"/>
<path d="M1450 1729 c-145 -17 -334 -80 -370 -124 -24 -29 -3 -26 84 10 149
62 343 94 563 95 69 0 100 11 67 24 -22 9 -255 5 -344 -5z"/>
<path d="M1890 1733 c0 -5 18 -18 40 -31 79 -45 85 -87 33 -205 -14 -31 -23
-60 -20 -63 9 -9 56 60 72 105 31 88 12 151 -55 186 -31 16 -70 20 -70 8z"/>
<path d="M336 1598 c-30 -106 -78 -418 -107 -698 -6 -63 -14 -230 -18 -370
l-6 -254 -75 -31 c-131 -54 -130 -53 -130 -156 l0 -89 140 0 140 0 -5 23 c-40
177 -36 624 11 1037 18 159 61 450 74 500 13 45 13 90 0 90 -5 0 -16 -24 -24
-52z"/>
<path d="M613 1574 c-10 -16 -19 -53 -21 -88 -3 -52 -1 -65 17 -86 l22 -25 -6
51 c-5 38 -1 65 14 109 25 71 24 65 6 65 -8 0 -22 -12 -32 -26z"/>
<path d="M1720 1479 c-183 -21 -348 -70 -429 -129 -79 -58 -40 -59 75 -2 115
57 266 90 487 108 42 3 77 9 77 13 0 5 -24 11 -52 15 -59 7 -54 7 -158 -5z"/>
<path d="M1995 1377 c31 -30 45 -52 45 -69 0 -76 -118 -261 -262 -414 -38 -39
-68 -74 -68 -78 0 -20 38 1 87 47 133 125 273 354 273 445 -1 65 -42 112 -100
112 -17 0 -13 -7 25 -43z"/>
<path d="M858 1383 c-26 -30 -37 -57 -44 -111 -5 -40 -3 -57 10 -77 24 -37 34
-31 29 19 -5 41 17 135 38 162 9 11 2 24 -11 24 -4 0 -14 -8 -22 -17z"/>
<path d="M1072 1115 c-19 -41 -15 -116 8 -153 28 -45 43 -32 24 21 -16 45 -13
85 10 130 14 26 14 27 -8 27 -15 0 -27 -9 -34 -25z"/>
<path d="M1739 1086 c-82 -72 -147 -106 -215 -113 -71 -8 -66 -27 9 -31 77 -4
154 35 230 118 55 59 67 80 48 80 -6 0 -38 -24 -72 -54z"/>
<path d="M1470 865 c-6 -8 -11 -31 -10 -52 2 -21 2 -68 1 -105 -1 -65 -2 -68
-32 -83 -17 -9 -32 -15 -34 -13 -2 2 3 41 11 88 16 100 18 160 4 160 -11 0
-14 -12 -36 -140 -39 -237 -143 -554 -226 -687 l-20 -33 226 0 c176 0 224 3
221 12 -11 32 -57 412 -58 485 -1 46 -5 83 -9 83 -5 0 -8 19 -8 43 -1 23 -5
61 -9 85 -8 38 -7 42 8 36 52 -23 151 -14 151 13 0 13 -8 14 -49 9 -27 -3 -61
-2 -76 4 -25 10 -27 14 -23 60 3 52 -8 64 -32 35z m0 -275 c0 -13 -10 -24 -27
-30 -16 -6 -36 -15 -45 -20 -25 -14 -28 -13 -19 11 4 12 23 30 42 39 45 24 49
23 49 0z"/>
<path d="M2842 540 c-106 -48 -168 -60 -314 -60 -107 0 -139 -3 -136 -12 6
-18 66 -27 183 -27 117 -1 181 14 267 61 91 50 91 80 0 38z"/>
</g>
</svg>
